<?xml version="1.0"?>
<svg width="24" height="24" xmlns="http://www.w3.org/2000/svg" xmlns:svg="http://www.w3.org/2000/svg">
 <g class="layer">
  <title>Layer 1</title>
  <path d="m6.33,4.64l-1.86,1.98l-0.5,0c-0.28,0 -0.5,-0.22 -0.5,-0.5l0,-1.99c0,-0.28 0.22,-0.5 0.5,-0.5l1.99,0c0.28,0 0.5,0.22 0.5,0.5l0,0.5l7.79,0.04l0,-0.5c0,-0.28 0.22,-0.5 0.5,-0.5l1.99,0c0.28,0 0.5,0.22 0.5,0.5l0,1.99c0,0.28 -0.22,0.5 -0.5,0.5l-1.13,-0.04l-3.21,3.31l-0.01,-0.42c0.28,0 0.58,0.35 0.58,0.62l-0.08,1.86c0,0.28 -0.22,0.5 -0.5,0.5l-1.99,0c-0.28,0 -0.5,-0.22 -0.5,-0.5l2.54,0.22l3.25,3.96l1.13,-0.02c0.28,0 0.41,0.47 0.5,0.5l0,1.99c0,0.28 -0.22,0.5 -0.5,0.5l-1.99,0c-0.28,0 -0.5,-0.22 -0.5,-0.5l0,-0.5l-7.88,0l0,0.5c0,0.28 -0.22,0.5 -0.5,0.5l-1.99,0c-0.28,0 -0.5,-0.22 -0.5,-0.5l0,-1.99c0,-0.28 0.22,-0.5 0.5,-0.5l0.5,0l0,-9.53l-0.5,0c-0.28,0 -0.5,-0.22 -0.5,-0.5l0,-1.99c0,-0.28 0.22,-0.5 0.5,-0.5l1.99,0c0.28,0 0.5,0.22 0.5,0.5l0,0.5l-0.12,0zm-0.89,2.01l1.01,-1.02l0,0.5c0,0.28 -0.22,0.5 -0.5,0.5l-0.5,0l0,9.53l0.5,0c0.28,0 0.5,0.22 0.5,0.5l0,0.5l7.88,0l0,-0.5c0,-0.28 0.22,-0.5 0.5,-0.5l-0.48,0.34l-3.47,-4.14l-1.02,-0.16l0.06,-2.38l1.03,-0.23l3.47,-3.5l0.25,0.31l-0.27,-1.12l-7.85,-0.01l-1.11,1.38zm0.02,-0.03l0.03,-0.35l0.84,-1.09l8.39,-0.02l0.78,1.17l-4.28,3.61l-1.34,0.06c0,-0.28 0.22,-0.5 0.5,-0.5l1.34,-0.13l1.82,-1.7l1.19,-1.02c-0.28,0 -0.5,-0.22 -0.5,-0.5l0,-0.5l-7.79,-0.04l0,0.5c0,0.28 -0.22,0.5 -0.5,0.5l-0.5,0zm-1,-1.99l0,1l1,0l0,-1l-1,0zm10.78,0.04l0,1l1,0l0,-1c-0.33,0 -0.66,0 -1,0zm-4.36,5.83l0,1l1,0l0,-1l-1,0zm-6.43,-5.86l0,1l1,0l0,-1l-1,0zm0,12.51l0,1l1,0l0,-1l-1,0zm10.86,0l0,1l1,0l0,-1l-1,0z" id="svg_1"/>
 </g>
</svg>