<svg width="24" height="24" xmlns="http://www.w3.org/2000/svg">

 <g>
  <title>background</title>
  <rect fill="none" id="canvas_background" height="402" width="582" y="-1" x="-1"/>
 </g>
 <g>
  <title>Layer 1</title>
  <path id="svg_1" d="m9.75,10l0,-4l-0.5,0c-0.27614,0 -0.5,-0.22386 -0.5,-0.5l0,-2c0,-0.27614 0.22386,-0.5 0.5,-0.5l2,0c0.27614,0 0.5,0.22386 0.5,0.5l0,0.5l6,0l0,-0.5c0,-0.27614 0.22386,-0.5 0.5,-0.5l2,0c0.27614,0 0.5,0.22386 0.5,0.5l0,2c0,0.27614 -0.22386,0.5 -0.5,0.5l-0.5,0l0,6l0.5,0c0.27614,0 0.5,0.22386 0.5,0.5l0,2c0,0.27614 -0.22386,0.5 -0.5,0.5l-2,0c-0.27614,0 -0.5,-0.22386 -0.5,-0.5l0,-0.5l-4,0l0,4l0.5,0c0.27614,0 0.5,0.22386 0.5,0.5l0,2c0,0.27614 -0.22386,0.5 -0.5,0.5l-2,0c-0.27614,0 -0.5,-0.22386 -0.5,-0.5l0,-0.5l-6,0l0,0.5c0,0.27614 -0.22386,0.5 -0.5,0.5l-2,0c-0.27614,0 -0.5,-0.22386 -0.5,-0.5l0,-2c0,-0.27614 0.22386,-0.5 0.5,-0.5l0.5,0l0,-6l-0.5,0c-0.27614,0 -0.5,-0.22386 -0.5,-0.5l0,-2c0,-0.27614 0.22386,-0.5 0.5,-0.5l2,0c0.27614,0 0.5,0.22386 0.5,0.5l0,0.5l4,0zm3.31249,1l-7.31249,0l0,0.5c0,0.27614 -0.22386,0.5 -0.5,0.5l-0.5,0l0,6l0.5,0c0.27614,0 0.5,0.22386 0.5,0.5l0,0.5l6,0l0,-0.5c0,-0.27614 0.22386,-0.5 0.5,-0.5l0.5,0l0,-4.9375l-2,-2.0625zm0,-5l0,5c0.0625,0.04168 1.8125,1.89583 2.0625,2.0625l4.9375,-0.0625l0,-0.5c0,-0.27614 0.22386,-0.5 0.5,-0.5l0.5,0l0,-6l-0.5,0c-0.27614,0 -0.5,-0.22386 -0.5,-0.5l0,-0.5l-6,0l0,0.5c0,0.27614 -0.22386,0.5 -0.5,0.5l-0.5,0zm-1,-2l0,1l1,0l0,-1l-1,0zm9,0l0,1l1,0l0,-1l-1,0zm0,9l0,1l1,0l0,-1l-1,0zm-15,-3l0,1l1,0l0,-1l-1,0zm0,9l0,1l1,0l0,-1l-1,0zm9,0l0,1l1,0l0,-1l-1,0z"/>
 </g>
</svg>